# MagicaVoxel @ Ephtracy

# group
o 

# material
mtllib cannon_full.mtl
usemtl palette

# normals
vn 0 0 1
vn 0 0 -1
vn 1 0 0
vn -1 0 0
vn 0 -1 0
vn 0 1 0

# texcoords
vt 0.302734 0.5
vt 0.923828 0.5
vt 0.927734 0.5
vt 0.962891 0.5
vt 0.970703 0.5
vt 0.986328 0.5

# verts
v 0.3 0 0.4
v -0.3 0 0.4
v 0.3 0.1 0.4
v -0.3 0.1 0.4
v 0.2 0.4 0.4
v -0.2 0.4 0.4
v 0.3 0.5 0.4
v 0.2 0.5 0.4
v -0.2 0.5 0.4
v -0.3 0.5 0.4
v 0.3 0.7 0.4
v 0.2 0.7 0.4
v -0.2 0.7 0.4
v -0.3 0.7 0.4
v 0.2 0.8 0.4
v -0.2 0.8 0.4
v 0.4 0 0.3
v 0.3 0 0.3
v -0.3 0 0.3
v -0.4 0 0.3
v 0.4 0.1 0.3
v 0.3 0.1 0.3
v -0.3 0.1 0.3
v -0.4 0.1 0.3
v 0.1 0.3 0.3
v -0.1 0.3 0.3
v 0.1 0.4 0.3
v -0.1 0.4 0.3
v 0.2 0.5 0.3
v -0.2 0.5 0.3
v 0.2 0.7 0.3
v -0.2 0.7 0.3
v 0.3 0 0.1
v 0.1 0 0.1
v -0.1 0 0.1
v -0.3 0 0.1
v 0.3 0.1 0.1
v 0.1 0.1 0.1
v -0.1 0.1 0.1
v -0.3 0.1 0.1
v 0.1 0.3 0.1
v -0.1 0.3 0.1
v 0.3 0 -0.2
v 0.2 0 -0.2
v -0.2 0 -0.2
v -0.3 0 -0.2
v 0.3 0.1 -0.2
v 0.2 0.1 -0.2
v -0.2 0.1 -0.2
v -0.3 0.1 -0.2
v 0.2 0 -0.3
v 0.1 0 -0.3
v -0.1 0 -0.3
v -0.2 0 -0.3
v 0.2 0.1 -0.3
v 0.1 0.1 -0.3
v -0.1 0.1 -0.3
v -0.2 0.1 -0.3
v 0.2 0 0.3
v 0.1 0 0.3
v -0.1 0 0.3
v -0.2 0 0.3
v 0.2 0.1 0.3
v 0.1 0.1 0.3
v -0.1 0.1 0.3
v -0.2 0.1 0.3
v 0.3 0 0.2
v 0.2 0 0.2
v -0.2 0 0.2
v -0.3 0 0.2
v 0.3 0.1 0.2
v 0.2 0.1 0.2
v -0.2 0.1 0.2
v -0.3 0.1 0.2
v 0.3 0 -0.1
v 0.1 0 -0.1
v -0.1 0 -0.1
v -0.3 0 -0.1
v 0.3 0.1 -0.1
v 0.1 0.1 -0.1
v -0.1 0.1 -0.1
v -0.3 0.1 -0.1
v 0.1 0.3 -0.1
v -0.1 0.3 -0.1
v 0.1 0.3 -0.2
v -0.1 0.3 -0.2
v 0.1 0.4 -0.2
v -0.1 0.4 -0.2
v 0.3 0.5 -0.2
v 0.2 0.5 -0.2
v -0.2 0.5 -0.2
v -0.3 0.5 -0.2
v 0.3 0.7 -0.2
v 0.2 0.7 -0.2
v -0.2 0.7 -0.2
v -0.3 0.7 -0.2
v 0.4 0 -0.3
v 0.3 0 -0.3
v -0.3 0 -0.3
v -0.4 0 -0.3
v 0.4 0.1 -0.3
v 0.3 0.1 -0.3
v -0.3 0.1 -0.3
v -0.4 0.1 -0.3
v 0.2 0.4 -0.3
v -0.2 0.4 -0.3
v 0.1 0.5 -0.3
v -0.1 0.5 -0.3
v 0.1 0.7 -0.3
v -0.1 0.7 -0.3
v 0.2 0.8 -0.3
v -0.2 0.8 -0.3
v 0.3 0 -0.4
v -0.3 0 -0.4
v 0.3 0.1 -0.4
v -0.3 0.1 -0.4
v 0.1 0.5 -0.4
v -0.1 0.5 -0.4
v 0.1 0.7 -0.4
v -0.1 0.7 -0.4
v 0.4 0 0.3
v 0.4 0.1 0.3
v 0.4 0 -0.3
v 0.4 0.1 -0.3
v 0.3 0 0.4
v 0.3 0.1 0.4
v 0.3 0.5 0.4
v 0.3 0.7 0.4
v 0.3 0 0.3
v 0.3 0.1 0.3
v 0.3 0.5 -0.2
v 0.3 0.7 -0.2
v 0.3 0 -0.3
v 0.3 0.1 -0.3
v 0.3 0 -0.4
v 0.3 0.1 -0.4
v 0.2 0.4 0.4
v 0.2 0.5 0.4
v 0.2 0.7 0.4
v 0.2 0.8 0.4
v 0.2 0.5 -0.2
v 0.2 0.7 -0.2
v 0.2 0.4 -0.3
v 0.2 0.8 -0.3
v 0.1 0 0.3
v 0.1 0.1 0.3
v 0.1 0.3 0.3
v 0.1 0.4 0.3
v 0.1 0 0.1
v 0.1 0.1 0.1
v 0.1 0.3 0.1
v 0.1 0 -0.1
v 0.1 0.1 -0.1
v 0.1 0.3 -0.1
v 0.1 0.3 -0.2
v 0.1 0.4 -0.2
v 0.1 0 -0.3
v 0.1 0.1 -0.3
v 0.1 0.5 -0.3
v 0.1 0.7 -0.3
v 0.1 0.5 -0.4
v 0.1 0.7 -0.4
v -0.2 0.5 0.4
v -0.2 0.7 0.4
v -0.2 0 0.3
v -0.2 0.1 0.3
v -0.2 0.5 0.3
v -0.2 0.7 0.3
v -0.2 0 0.2
v -0.2 0.1 0.2
v -0.2 0 -0.2
v -0.2 0.1 -0.2
v -0.2 0 -0.3
v -0.2 0.1 -0.3
v -0.3 0 0.2
v -0.3 0.1 0.2
v -0.3 0 0.1
v -0.3 0.1 0.1
v -0.3 0 -0.1
v -0.3 0.1 -0.1
v -0.3 0 -0.2
v -0.3 0.1 -0.2
v 0.3 0 0.2
v 0.3 0.1 0.2
v 0.3 0 0.1
v 0.3 0.1 0.1
v 0.3 0 -0.1
v 0.3 0.1 -0.1
v 0.3 0 -0.2
v 0.3 0.1 -0.2
v 0.2 0.5 0.4
v 0.2 0.7 0.4
v 0.2 0 0.3
v 0.2 0.1 0.3
v 0.2 0.5 0.3
v 0.2 0.7 0.3
v 0.2 0 0.2
v 0.2 0.1 0.2
v 0.2 0 -0.2
v 0.2 0.1 -0.2
v 0.2 0 -0.3
v 0.2 0.1 -0.3
v -0.1 0 0.3
v -0.1 0.1 0.3
v -0.1 0.3 0.3
v -0.1 0.4 0.3
v -0.1 0 0.1
v -0.1 0.1 0.1
v -0.1 0.3 0.1
v -0.1 0 -0.1
v -0.1 0.1 -0.1
v -0.1 0.3 -0.1
v -0.1 0.3 -0.2
v -0.1 0.4 -0.2
v -0.1 0 -0.3
v -0.1 0.1 -0.3
v -0.1 0.5 -0.3
v -0.1 0.7 -0.3
v -0.1 0.5 -0.4
v -0.1 0.7 -0.4
v -0.2 0.4 0.4
v -0.2 0.5 0.4
v -0.2 0.7 0.4
v -0.2 0.8 0.4
v -0.2 0.5 -0.2
v -0.2 0.7 -0.2
v -0.2 0.4 -0.3
v -0.2 0.8 -0.3
v -0.3 0 0.4
v -0.3 0.1 0.4
v -0.3 0.5 0.4
v -0.3 0.7 0.4
v -0.3 0 0.3
v -0.3 0.1 0.3
v -0.3 0.5 -0.2
v -0.3 0.7 -0.2
v -0.3 0 -0.3
v -0.3 0.1 -0.3
v -0.3 0 -0.4
v -0.3 0.1 -0.4
v -0.4 0 0.3
v -0.4 0.1 0.3
v -0.4 0 -0.3
v -0.4 0.1 -0.3
v 0.4 0 0.3
v 0.4 0 -0.3
v 0.3 0 0.4
v 0.3 0 0.3
v 0.3 0 0.2
v 0.3 0 0.1
v 0.3 0 -0.1
v 0.3 0 -0.2
v 0.3 0 -0.3
v 0.3 0 -0.4
v 0.2 0 0.3
v 0.2 0 0.2
v 0.2 0 -0.2
v 0.2 0 -0.3
v 0.1 0 0.3
v 0.1 0 0.1
v 0.1 0 -0.1
v 0.1 0 -0.3
v -0.1 0 0.3
v -0.1 0 0.1
v -0.1 0 -0.1
v -0.1 0 -0.3
v -0.2 0 0.3
v -0.2 0 0.2
v -0.2 0 -0.2
v -0.2 0 -0.3
v -0.3 0 0.4
v -0.3 0 0.3
v -0.3 0 0.2
v -0.3 0 0.1
v -0.3 0 -0.1
v -0.3 0 -0.2
v -0.3 0 -0.3
v -0.3 0 -0.4
v -0.4 0 0.3
v -0.4 0 -0.3
v 0.1 0.3 0.3
v 0.1 0.3 0.1
v 0.1 0.3 -0.1
v 0.1 0.3 -0.2
v -0.1 0.3 0.3
v -0.1 0.3 0.1
v -0.1 0.3 -0.1
v -0.1 0.3 -0.2
v 0.2 0.4 0.4
v 0.2 0.4 -0.3
v 0.1 0.4 0.3
v 0.1 0.4 -0.2
v -0.1 0.4 0.3
v -0.1 0.4 -0.2
v -0.2 0.4 0.4
v -0.2 0.4 -0.3
v 0.3 0.5 0.4
v 0.3 0.5 -0.2
v 0.2 0.5 0.4
v 0.2 0.5 -0.2
v 0.1 0.5 -0.3
v 0.1 0.5 -0.4
v -0.1 0.5 -0.3
v -0.1 0.5 -0.4
v -0.2 0.5 0.4
v -0.2 0.5 -0.2
v -0.3 0.5 0.4
v -0.3 0.5 -0.2
v 0.2 0.7 0.4
v 0.2 0.7 0.3
v -0.2 0.7 0.4
v -0.2 0.7 0.3
v 0.4 0.1 0.3
v 0.4 0.1 -0.3
v 0.3 0.1 0.4
v 0.3 0.1 0.3
v 0.3 0.1 0.2
v 0.3 0.1 0.1
v 0.3 0.1 -0.1
v 0.3 0.1 -0.2
v 0.3 0.1 -0.3
v 0.3 0.1 -0.4
v 0.2 0.1 0.3
v 0.2 0.1 0.2
v 0.2 0.1 -0.2
v 0.2 0.1 -0.3
v 0.1 0.1 0.3
v 0.1 0.1 0.1
v 0.1 0.1 -0.1
v 0.1 0.1 -0.3
v -0.1 0.1 0.3
v -0.1 0.1 0.1
v -0.1 0.1 -0.1
v -0.1 0.1 -0.3
v -0.2 0.1 0.3
v -0.2 0.1 0.2
v -0.2 0.1 -0.2
v -0.2 0.1 -0.3
v -0.3 0.1 0.4
v -0.3 0.1 0.3
v -0.3 0.1 0.2
v -0.3 0.1 0.1
v -0.3 0.1 -0.1
v -0.3 0.1 -0.2
v -0.3 0.1 -0.3
v -0.3 0.1 -0.4
v -0.4 0.1 0.3
v -0.4 0.1 -0.3
v 0.2 0.5 0.4
v 0.2 0.5 0.3
v -0.2 0.5 0.4
v -0.2 0.5 0.3
v 0.3 0.7 0.4
v 0.3 0.7 -0.2
v 0.2 0.7 0.4
v 0.2 0.7 -0.2
v 0.1 0.7 -0.3
v 0.1 0.7 -0.4
v -0.1 0.7 -0.3
v -0.1 0.7 -0.4
v -0.2 0.7 0.4
v -0.2 0.7 -0.2
v -0.3 0.7 0.4
v -0.3 0.7 -0.2
v 0.2 0.8 0.4
v 0.2 0.8 -0.3
v -0.2 0.8 0.4
v -0.2 0.8 -0.3

# faces
f 3/1/1 2/1/1 1/1/1
f 4/1/1 2/1/1 3/1/1
f 8/3/1 6/3/1 5/3/1
f 9/3/1 6/3/1 8/3/1
f 11/3/1 8/3/1 7/3/1
f 12/3/1 8/3/1 11/3/1
f 13/3/1 10/3/1 9/3/1
f 14/3/1 10/3/1 13/3/1
f 15/3/1 13/3/1 12/3/1
f 16/3/1 13/3/1 15/3/1
f 21/1/1 18/1/1 17/1/1
f 22/1/1 18/1/1 21/1/1
f 23/1/1 20/1/1 19/1/1
f 24/1/1 20/1/1 23/1/1
f 27/3/1 26/3/1 25/3/1
f 28/3/1 26/3/1 27/3/1
f 31/6/1 30/6/1 29/6/1
f 32/6/1 30/6/1 31/6/1
f 37/5/1 34/5/1 33/5/1
f 38/5/1 34/5/1 37/5/1
f 39/5/1 36/5/1 35/5/1
f 40/5/1 36/5/1 39/5/1
f 41/5/1 39/5/1 38/5/1
f 42/5/1 39/5/1 41/5/1
f 47/1/1 44/1/1 43/1/1
f 48/1/1 44/1/1 47/1/1
f 49/1/1 46/1/1 45/1/1
f 50/1/1 46/1/1 49/1/1
f 55/1/1 52/1/1 51/1/1
f 56/1/1 52/1/1 55/1/1
f 57/1/1 54/1/1 53/1/1
f 58/1/1 54/1/1 57/1/1
f 59/1/2 60/1/2 63/1/2
f 63/1/2 60/1/2 64/1/2
f 61/1/2 62/1/2 65/1/2
f 65/1/2 62/1/2 66/1/2
f 67/1/2 68/1/2 71/1/2
f 71/1/2 68/1/2 72/1/2
f 69/1/2 70/1/2 73/1/2
f 73/1/2 70/1/2 74/1/2
f 75/5/2 76/5/2 79/5/2
f 79/5/2 76/5/2 80/5/2
f 77/5/2 78/5/2 81/5/2
f 81/5/2 78/5/2 82/5/2
f 80/5/2 81/5/2 83/5/2
f 83/5/2 81/5/2 84/5/2
f 85/3/2 86/3/2 87/3/2
f 87/3/2 86/3/2 88/3/2
f 89/3/2 90/3/2 93/3/2
f 93/3/2 90/3/2 94/3/2
f 91/3/2 92/3/2 95/3/2
f 95/3/2 92/3/2 96/3/2
f 97/1/2 98/1/2 101/1/2
f 101/1/2 98/1/2 102/1/2
f 99/1/2 100/1/2 103/1/2
f 103/1/2 100/1/2 104/1/2
f 105/3/2 106/3/2 107/3/2
f 107/3/2 106/3/2 108/3/2
f 105/3/2 107/3/2 109/3/2
f 108/3/2 106/3/2 110/3/2
f 105/3/2 109/3/2 111/3/2
f 109/3/2 110/3/2 111/3/2
f 110/3/2 106/3/2 112/3/2
f 111/3/2 110/3/2 112/3/2
f 113/1/2 114/1/2 115/1/2
f 115/1/2 114/1/2 116/1/2
f 117/2/2 118/2/2 119/2/2
f 119/2/2 118/2/2 120/2/2
f 123/1/3 122/1/3 121/1/3
f 124/1/3 122/1/3 123/1/3
f 129/1/3 126/1/3 125/1/3
f 130/1/3 126/1/3 129/1/3
f 131/3/3 128/3/3 127/3/3
f 132/3/3 128/3/3 131/3/3
f 135/1/3 134/1/3 133/1/3
f 136/1/3 134/1/3 135/1/3
f 141/3/3 138/3/3 137/3/3
f 142/3/3 140/3/3 139/3/3
f 143/3/3 141/3/3 137/3/3
f 143/3/3 142/3/3 141/3/3
f 144/3/3 140/3/3 142/3/3
f 144/3/3 142/3/3 143/3/3
f 149/5/3 146/5/3 145/5/3
f 150/5/3 146/5/3 149/5/3
f 151/3/3 148/3/3 147/3/3
f 153/5/3 151/5/3 150/5/3
f 154/3/3 148/3/3 151/3/3
f 154/5/3 151/5/3 153/5/3
f 155/3/3 148/3/3 154/3/3
f 156/3/3 148/3/3 155/3/3
f 157/5/3 153/5/3 152/5/3
f 158/5/3 153/5/3 157/5/3
f 161/2/3 160/2/3 159/2/3
f 162/2/3 160/2/3 161/2/3
f 167/3/3 164/3/3 163/3/3
f 168/3/3 164/3/3 167/3/3
f 169/1/3 166/1/3 165/1/3
f 170/1/3 166/1/3 169/1/3
f 173/1/3 172/1/3 171/1/3
f 174/1/3 172/1/3 173/1/3
f 177/1/3 176/1/3 175/1/3
f 178/1/3 176/1/3 177/1/3
f 181/1/3 180/1/3 179/1/3
f 182/1/3 180/1/3 181/1/3
f 183/1/4 184/1/4 185/1/4
f 185/1/4 184/1/4 186/1/4
f 187/1/4 188/1/4 189/1/4
f 189/1/4 188/1/4 190/1/4
f 191/3/4 192/3/4 195/3/4
f 195/3/4 192/3/4 196/3/4
f 193/1/4 194/1/4 197/1/4
f 197/1/4 194/1/4 198/1/4
f 199/1/4 200/1/4 201/1/4
f 201/1/4 200/1/4 202/1/4
f 203/5/4 204/5/4 207/5/4
f 207/5/4 204/5/4 208/5/4
f 205/3/4 206/3/4 209/3/4
f 208/5/4 209/5/4 211/5/4
f 209/3/4 206/3/4 212/3/4
f 211/5/4 209/5/4 212/5/4
f 212/3/4 206/3/4 213/3/4
f 213/3/4 206/3/4 214/3/4
f 210/5/4 211/5/4 215/5/4
f 215/5/4 211/5/4 216/5/4
f 217/2/4 218/2/4 219/2/4
f 219/2/4 218/2/4 220/2/4
f 221/3/4 222/3/4 225/3/4
f 223/3/4 224/3/4 226/3/4
f 221/3/4 225/3/4 227/3/4
f 225/3/4 226/3/4 227/3/4
f 226/3/4 224/3/4 228/3/4
f 227/3/4 226/3/4 228/3/4
f 229/1/4 230/1/4 233/1/4
f 233/1/4 230/1/4 234/1/4
f 231/3/4 232/3/4 235/3/4
f 235/3/4 232/3/4 236/3/4
f 237/1/4 238/1/4 239/1/4
f 239/1/4 238/1/4 240/1/4
f 241/1/4 242/1/4 243/1/4
f 243/1/4 242/1/4 244/1/4
f 248/1/5 246/1/5 245/1/5
f 249/1/5 246/1/5 248/1/5
f 250/1/5 246/1/5 249/1/5
f 251/1/5 246/1/5 250/1/5
f 252/1/5 246/1/5 251/1/5
f 253/1/5 246/1/5 252/1/5
f 255/1/5 248/1/5 247/1/5
f 255/1/5 249/1/5 248/1/5
f 256/1/5 249/1/5 255/1/5
f 257/1/5 254/1/5 253/1/5
f 257/1/5 253/1/5 252/1/5
f 258/1/5 254/1/5 257/1/5
f 259/1/5 255/1/5 247/1/5
f 260/5/5 251/5/5 250/5/5
f 261/5/5 251/5/5 260/5/5
f 262/1/5 254/1/5 258/1/5
f 263/5/5 261/5/5 260/5/5
f 263/5/5 262/5/5 261/5/5
f 263/1/5 259/1/5 247/1/5
f 263/5/5 260/5/5 259/5/5
f 264/5/5 262/5/5 263/5/5
f 265/5/5 262/5/5 264/5/5
f 266/1/5 254/1/5 262/1/5
f 266/5/5 262/5/5 265/5/5
f 267/1/5 263/1/5 247/1/5
f 270/1/5 254/1/5 266/1/5
f 271/1/5 268/1/5 267/1/5
f 271/1/5 267/1/5 247/1/5
f 272/1/5 268/1/5 271/1/5
f 273/1/5 268/1/5 272/1/5
f 274/5/5 265/5/5 264/5/5
f 275/5/5 265/5/5 274/5/5
f 276/1/5 270/1/5 269/1/5
f 277/1/5 254/1/5 270/1/5
f 277/1/5 270/1/5 276/1/5
f 278/1/5 254/1/5 277/1/5
f 279/1/5 273/1/5 272/1/5
f 279/1/5 275/1/5 274/1/5
f 279/1/5 277/1/5 276/1/5
f 279/1/5 276/1/5 275/1/5
f 279/1/5 274/1/5 273/1/5
f 280/1/5 277/1/5 279/1/5
f 285/3/5 282/3/5 281/3/5
f 286/3/5 282/3/5 285/3/5
f 287/3/5 284/3/5 283/3/5
f 288/3/5 284/3/5 287/3/5
f 291/3/5 290/3/5 289/3/5
f 292/3/5 290/3/5 291/3/5
f 293/3/5 291/3/5 289/3/5
f 294/3/5 290/3/5 292/3/5
f 295/3/5 293/3/5 289/3/5
f 295/3/5 294/3/5 293/3/5
f 296/3/5 290/3/5 294/3/5
f 296/3/5 294/3/5 295/3/5
f 299/3/5 298/3/5 297/3/5
f 300/3/5 298/3/5 299/3/5
f 303/2/5 302/2/5 301/2/5
f 304/2/5 302/2/5 303/2/5
f 307/3/5 306/3/5 305/3/5
f 308/3/5 306/3/5 307/3/5
f 311/3/5 310/3/5 309/3/5
f 312/3/5 310/3/5 311/3/5
f 313/1/6 314/1/6 316/1/6
f 316/1/6 314/1/6 317/1/6
f 317/1/6 314/1/6 318/1/6
f 318/1/6 314/1/6 319/1/6
f 319/1/6 314/1/6 320/1/6
f 320/1/6 314/1/6 321/1/6
f 315/1/6 316/1/6 323/1/6
f 316/1/6 317/1/6 323/1/6
f 323/1/6 317/1/6 324/1/6
f 321/1/6 322/1/6 325/1/6
f 320/1/6 321/1/6 325/1/6
f 325/1/6 322/1/6 326/1/6
f 315/1/6 323/1/6 327/1/6
f 318/5/6 319/5/6 328/5/6
f 328/5/6 319/5/6 329/5/6
f 326/1/6 322/1/6 330/1/6
f 315/1/6 327/1/6 331/1/6
f 327/5/6 328/5/6 331/5/6
f 331/5/6 328/5/6 332/5/6
f 329/5/6 330/5/6 333/5/6
f 330/1/6 322/1/6 334/1/6
f 333/5/6 330/5/6 334/5/6
f 315/1/6 331/1/6 335/1/6
f 334/1/6 322/1/6 338/1/6
f 335/1/6 336/1/6 339/1/6
f 315/1/6 335/1/6 339/1/6
f 339/1/6 336/1/6 340/1/6
f 340/1/6 336/1/6 341/1/6
f 332/5/6 333/5/6 342/5/6
f 342/5/6 333/5/6 343/5/6
f 337/1/6 338/1/6 344/1/6
f 338/1/6 322/1/6 345/1/6
f 344/1/6 338/1/6 345/1/6
f 345/1/6 322/1/6 346/1/6
f 342/1/6 343/1/6 347/1/6
f 340/1/6 341/1/6 347/1/6
f 344/1/6 345/1/6 347/1/6
f 343/1/6 344/1/6 347/1/6
f 341/1/6 342/1/6 347/1/6
f 347/1/6 345/1/6 348/1/6
f 349/3/6 350/3/6 351/3/6
f 351/3/6 350/3/6 352/3/6
f 353/3/6 354/3/6 355/3/6
f 355/3/6 354/3/6 356/3/6
f 357/2/6 358/2/6 359/2/6
f 359/2/6 358/2/6 360/2/6
f 361/3/6 362/3/6 363/3/6
f 363/3/6 362/3/6 364/3/6
f 365/3/6 366/3/6 367/3/6
f 367/3/6 366/3/6 368/3/6
