# MagicaVoxel @ Ephtracy

# group
o 

# material
mtllib cannon_base.mtl
usemtl palette

# normals
vn 0 0 1
vn 0 0 -1
vn 1 0 0
vn -1 0 0
vn 0 -1 0
vn 0 1 0

# texcoords
vt 0.302734 0.5
vt 0.970703 0.5

# verts
v 0.3 0 0.4
v -0.3 0 0.4
v 0.3 0.1 0.4
v -0.3 0.1 0.4
v 0.4 0 0.3
v 0.3 0 0.3
v -0.3 0 0.3
v -0.4 0 0.3
v 0.4 0.1 0.3
v 0.3 0.1 0.3
v -0.3 0.1 0.3
v -0.4 0.1 0.3
v 0.3 0 0.1
v 0.1 0 0.1
v -0.1 0 0.1
v -0.3 0 0.1
v 0.3 0.1 0.1
v 0.1 0.1 0.1
v -0.1 0.1 0.1
v -0.3 0.1 0.1
v 0.1 0.3 0.1
v -0.1 0.3 0.1
v 0.3 0 -0.2
v 0.2 0 -0.2
v -0.2 0 -0.2
v -0.3 0 -0.2
v 0.3 0.1 -0.2
v 0.2 0.1 -0.2
v -0.2 0.1 -0.2
v -0.3 0.1 -0.2
v 0.2 0 -0.3
v 0.1 0 -0.3
v -0.1 0 -0.3
v -0.2 0 -0.3
v 0.2 0.1 -0.3
v 0.1 0.1 -0.3
v -0.1 0.1 -0.3
v -0.2 0.1 -0.3
v 0.2 0 0.3
v 0.1 0 0.3
v -0.1 0 0.3
v -0.2 0 0.3
v 0.2 0.1 0.3
v 0.1 0.1 0.3
v -0.1 0.1 0.3
v -0.2 0.1 0.3
v 0.3 0 0.2
v 0.2 0 0.2
v -0.2 0 0.2
v -0.3 0 0.2
v 0.3 0.1 0.2
v 0.2 0.1 0.2
v -0.2 0.1 0.2
v -0.3 0.1 0.2
v 0.3 0 -0.1
v 0.1 0 -0.1
v -0.1 0 -0.1
v -0.3 0 -0.1
v 0.3 0.1 -0.1
v 0.1 0.1 -0.1
v -0.1 0.1 -0.1
v -0.3 0.1 -0.1
v 0.1 0.3 -0.1
v -0.1 0.3 -0.1
v 0.4 0 -0.3
v 0.3 0 -0.3
v -0.3 0 -0.3
v -0.4 0 -0.3
v 0.4 0.1 -0.3
v 0.3 0.1 -0.3
v -0.3 0.1 -0.3
v -0.4 0.1 -0.3
v 0.3 0 -0.4
v -0.3 0 -0.4
v 0.3 0.1 -0.4
v -0.3 0.1 -0.4
v 0.4 0 0.3
v 0.4 0.1 0.3
v 0.4 0 -0.3
v 0.4 0.1 -0.3
v 0.3 0 0.4
v 0.3 0.1 0.4
v 0.3 0 0.3
v 0.3 0.1 0.3
v 0.3 0 -0.3
v 0.3 0.1 -0.3
v 0.3 0 -0.4
v 0.3 0.1 -0.4
v 0.1 0 0.3
v 0.1 0.1 0.3
v 0.1 0 0.1
v 0.1 0.1 0.1
v 0.1 0.3 0.1
v 0.1 0 -0.1
v 0.1 0.1 -0.1
v 0.1 0.3 -0.1
v 0.1 0 -0.3
v 0.1 0.1 -0.3
v -0.2 0 0.3
v -0.2 0.1 0.3
v -0.2 0 0.2
v -0.2 0.1 0.2
v -0.2 0 -0.2
v -0.2 0.1 -0.2
v -0.2 0 -0.3
v -0.2 0.1 -0.3
v -0.3 0 0.2
v -0.3 0.1 0.2
v -0.3 0 0.1
v -0.3 0.1 0.1
v -0.3 0 -0.1
v -0.3 0.1 -0.1
v -0.3 0 -0.2
v -0.3 0.1 -0.2
v 0.3 0 0.2
v 0.3 0.1 0.2
v 0.3 0 0.1
v 0.3 0.1 0.1
v 0.3 0 -0.1
v 0.3 0.1 -0.1
v 0.3 0 -0.2
v 0.3 0.1 -0.2
v 0.2 0 0.3
v 0.2 0.1 0.3
v 0.2 0 0.2
v 0.2 0.1 0.2
v 0.2 0 -0.2
v 0.2 0.1 -0.2
v 0.2 0 -0.3
v 0.2 0.1 -0.3
v -0.1 0 0.3
v -0.1 0.1 0.3
v -0.1 0 0.1
v -0.1 0.1 0.1
v -0.1 0.3 0.1
v -0.1 0 -0.1
v -0.1 0.1 -0.1
v -0.1 0.3 -0.1
v -0.1 0 -0.3
v -0.1 0.1 -0.3
v -0.3 0 0.4
v -0.3 0.1 0.4
v -0.3 0 0.3
v -0.3 0.1 0.3
v -0.3 0 -0.3
v -0.3 0.1 -0.3
v -0.3 0 -0.4
v -0.3 0.1 -0.4
v -0.4 0 0.3
v -0.4 0.1 0.3
v -0.4 0 -0.3
v -0.4 0.1 -0.3
v 0.4 0 0.3
v 0.4 0 -0.3
v 0.3 0 0.4
v 0.3 0 0.3
v 0.3 0 0.2
v 0.3 0 0.1
v 0.3 0 -0.1
v 0.3 0 -0.2
v 0.3 0 -0.3
v 0.3 0 -0.4
v 0.2 0 0.3
v 0.2 0 0.2
v 0.2 0 -0.2
v 0.2 0 -0.3
v 0.1 0 0.3
v 0.1 0 0.1
v 0.1 0 -0.1
v 0.1 0 -0.3
v -0.1 0 0.3
v -0.1 0 0.1
v -0.1 0 -0.1
v -0.1 0 -0.3
v -0.2 0 0.3
v -0.2 0 0.2
v -0.2 0 -0.2
v -0.2 0 -0.3
v -0.3 0 0.4
v -0.3 0 0.3
v -0.3 0 0.2
v -0.3 0 0.1
v -0.3 0 -0.1
v -0.3 0 -0.2
v -0.3 0 -0.3
v -0.3 0 -0.4
v -0.4 0 0.3
v -0.4 0 -0.3
v 0.4 0.1 0.3
v 0.4 0.1 -0.3
v 0.3 0.1 0.4
v 0.3 0.1 0.3
v 0.3 0.1 0.2
v 0.3 0.1 0.1
v 0.3 0.1 -0.1
v 0.3 0.1 -0.2
v 0.3 0.1 -0.3
v 0.3 0.1 -0.4
v 0.2 0.1 0.3
v 0.2 0.1 0.2
v 0.2 0.1 -0.2
v 0.2 0.1 -0.3
v 0.1 0.1 0.3
v 0.1 0.1 0.1
v 0.1 0.1 -0.1
v 0.1 0.1 -0.3
v -0.1 0.1 0.3
v -0.1 0.1 0.1
v -0.1 0.1 -0.1
v -0.1 0.1 -0.3
v -0.2 0.1 0.3
v -0.2 0.1 0.2
v -0.2 0.1 -0.2
v -0.2 0.1 -0.3
v -0.3 0.1 0.4
v -0.3 0.1 0.3
v -0.3 0.1 0.2
v -0.3 0.1 0.1
v -0.3 0.1 -0.1
v -0.3 0.1 -0.2
v -0.3 0.1 -0.3
v -0.3 0.1 -0.4
v -0.4 0.1 0.3
v -0.4 0.1 -0.3
v 0.1 0.3 0.1
v 0.1 0.3 -0.1
v -0.1 0.3 0.1
v -0.1 0.3 -0.1

# faces
f 3/1/1 2/1/1 1/1/1
f 4/1/1 2/1/1 3/1/1
f 9/1/1 6/1/1 5/1/1
f 10/1/1 6/1/1 9/1/1
f 11/1/1 8/1/1 7/1/1
f 12/1/1 8/1/1 11/1/1
f 17/2/1 14/2/1 13/2/1
f 18/2/1 14/2/1 17/2/1
f 19/2/1 16/2/1 15/2/1
f 20/2/1 16/2/1 19/2/1
f 21/2/1 19/2/1 18/2/1
f 22/2/1 19/2/1 21/2/1
f 27/1/1 24/1/1 23/1/1
f 28/1/1 24/1/1 27/1/1
f 29/1/1 26/1/1 25/1/1
f 30/1/1 26/1/1 29/1/1
f 35/1/1 32/1/1 31/1/1
f 36/1/1 32/1/1 35/1/1
f 37/1/1 34/1/1 33/1/1
f 38/1/1 34/1/1 37/1/1
f 39/1/2 40/1/2 43/1/2
f 43/1/2 40/1/2 44/1/2
f 41/1/2 42/1/2 45/1/2
f 45/1/2 42/1/2 46/1/2
f 47/1/2 48/1/2 51/1/2
f 51/1/2 48/1/2 52/1/2
f 49/1/2 50/1/2 53/1/2
f 53/1/2 50/1/2 54/1/2
f 55/2/2 56/2/2 59/2/2
f 59/2/2 56/2/2 60/2/2
f 57/2/2 58/2/2 61/2/2
f 61/2/2 58/2/2 62/2/2
f 60/2/2 61/2/2 63/2/2
f 63/2/2 61/2/2 64/2/2
f 65/1/2 66/1/2 69/1/2
f 69/1/2 66/1/2 70/1/2
f 67/1/2 68/1/2 71/1/2
f 71/1/2 68/1/2 72/1/2
f 73/1/2 74/1/2 75/1/2
f 75/1/2 74/1/2 76/1/2
f 79/1/3 78/1/3 77/1/3
f 80/1/3 78/1/3 79/1/3
f 83/1/3 82/1/3 81/1/3
f 84/1/3 82/1/3 83/1/3
f 87/1/3 86/1/3 85/1/3
f 88/1/3 86/1/3 87/1/3
f 91/2/3 90/2/3 89/2/3
f 92/2/3 90/2/3 91/2/3
f 95/2/3 93/2/3 92/2/3
f 96/2/3 93/2/3 95/2/3
f 97/2/3 95/2/3 94/2/3
f 98/2/3 95/2/3 97/2/3
f 101/1/3 100/1/3 99/1/3
f 102/1/3 100/1/3 101/1/3
f 105/1/3 104/1/3 103/1/3
f 106/1/3 104/1/3 105/1/3
f 109/1/3 108/1/3 107/1/3
f 110/1/3 108/1/3 109/1/3
f 113/1/3 112/1/3 111/1/3
f 114/1/3 112/1/3 113/1/3
f 115/1/4 116/1/4 117/1/4
f 117/1/4 116/1/4 118/1/4
f 119/1/4 120/1/4 121/1/4
f 121/1/4 120/1/4 122/1/4
f 123/1/4 124/1/4 125/1/4
f 125/1/4 124/1/4 126/1/4
f 127/1/4 128/1/4 129/1/4
f 129/1/4 128/1/4 130/1/4
f 131/2/4 132/2/4 133/2/4
f 133/2/4 132/2/4 134/2/4
f 134/2/4 135/2/4 137/2/4
f 137/2/4 135/2/4 138/2/4
f 136/2/4 137/2/4 139/2/4
f 139/2/4 137/2/4 140/2/4
f 141/1/4 142/1/4 143/1/4
f 143/1/4 142/1/4 144/1/4
f 145/1/4 146/1/4 147/1/4
f 147/1/4 146/1/4 148/1/4
f 149/1/4 150/1/4 151/1/4
f 151/1/4 150/1/4 152/1/4
f 156/1/5 154/1/5 153/1/5
f 157/1/5 154/1/5 156/1/5
f 158/1/5 154/1/5 157/1/5
f 159/1/5 154/1/5 158/1/5
f 160/1/5 154/1/5 159/1/5
f 161/1/5 154/1/5 160/1/5
f 163/1/5 156/1/5 155/1/5
f 163/1/5 157/1/5 156/1/5
f 164/1/5 157/1/5 163/1/5
f 165/1/5 162/1/5 161/1/5
f 165/1/5 161/1/5 160/1/5
f 166/1/5 162/1/5 165/1/5
f 167/1/5 163/1/5 155/1/5
f 168/2/5 159/2/5 158/2/5
f 169/2/5 159/2/5 168/2/5
f 170/1/5 162/1/5 166/1/5
f 171/2/5 169/2/5 168/2/5
f 171/2/5 170/2/5 169/2/5
f 171/1/5 167/1/5 155/1/5
f 171/2/5 168/2/5 167/2/5
f 172/2/5 170/2/5 171/2/5
f 173/2/5 170/2/5 172/2/5
f 174/1/5 162/1/5 170/1/5
f 174/2/5 170/2/5 173/2/5
f 175/1/5 171/1/5 155/1/5
f 178/1/5 162/1/5 174/1/5
f 179/1/5 176/1/5 175/1/5
f 179/1/5 175/1/5 155/1/5
f 180/1/5 176/1/5 179/1/5
f 181/1/5 176/1/5 180/1/5
f 182/2/5 173/2/5 172/2/5
f 183/2/5 173/2/5 182/2/5
f 184/1/5 178/1/5 177/1/5
f 185/1/5 162/1/5 178/1/5
f 185/1/5 178/1/5 184/1/5
f 186/1/5 162/1/5 185/1/5
f 187/1/5 181/1/5 180/1/5
f 187/1/5 183/1/5 182/1/5
f 187/1/5 185/1/5 184/1/5
f 187/1/5 184/1/5 183/1/5
f 187/1/5 182/1/5 181/1/5
f 188/1/5 185/1/5 187/1/5
f 189/1/6 190/1/6 192/1/6
f 192/1/6 190/1/6 193/1/6
f 193/1/6 190/1/6 194/1/6
f 194/1/6 190/1/6 195/1/6
f 195/1/6 190/1/6 196/1/6
f 196/1/6 190/1/6 197/1/6
f 191/1/6 192/1/6 199/1/6
f 192/1/6 193/1/6 199/1/6
f 199/1/6 193/1/6 200/1/6
f 197/1/6 198/1/6 201/1/6
f 196/1/6 197/1/6 201/1/6
f 201/1/6 198/1/6 202/1/6
f 191/1/6 199/1/6 203/1/6
f 194/2/6 195/2/6 204/2/6
f 204/2/6 195/2/6 205/2/6
f 202/1/6 198/1/6 206/1/6
f 191/1/6 203/1/6 207/1/6
f 203/2/6 204/2/6 207/2/6
f 207/2/6 204/2/6 208/2/6
f 205/2/6 206/2/6 209/2/6
f 206/1/6 198/1/6 210/1/6
f 209/2/6 206/2/6 210/2/6
f 191/1/6 207/1/6 211/1/6
f 210/1/6 198/1/6 214/1/6
f 211/1/6 212/1/6 215/1/6
f 191/1/6 211/1/6 215/1/6
f 215/1/6 212/1/6 216/1/6
f 216/1/6 212/1/6 217/1/6
f 208/2/6 209/2/6 218/2/6
f 218/2/6 209/2/6 219/2/6
f 213/1/6 214/1/6 220/1/6
f 214/1/6 198/1/6 221/1/6
f 220/1/6 214/1/6 221/1/6
f 221/1/6 198/1/6 222/1/6
f 218/1/6 219/1/6 223/1/6
f 216/1/6 217/1/6 223/1/6
f 220/1/6 221/1/6 223/1/6
f 219/1/6 220/1/6 223/1/6
f 217/1/6 218/1/6 223/1/6
f 223/1/6 221/1/6 224/1/6
f 225/2/6 226/2/6 227/2/6
f 227/2/6 226/2/6 228/2/6
