# MagicaVoxel @ Ephtracy

# group
o 

# material
mtllib cannon_top.mtl
usemtl palette

# normals
vn 0 0 1
vn 0 0 -1
vn 1 0 0
vn -1 0 0
vn 0 -1 0
vn 0 1 0

# texcoords
vt 0.923828 0.5
vt 0.927734 0.5
vt 0.962891 0.5
vt 0.986328 0.5

# verts
v 0.2 0.4 0.4
v -0.2 0.4 0.4
v 0.3 0.5 0.4
v 0.2 0.5 0.4
v -0.2 0.5 0.4
v -0.3 0.5 0.4
v 0.3 0.7 0.4
v 0.2 0.7 0.4
v -0.2 0.7 0.4
v -0.3 0.7 0.4
v 0.2 0.8 0.4
v -0.2 0.8 0.4
v 0.1 0.3 0.3
v -0.1 0.3 0.3
v 0.1 0.4 0.3
v -0.1 0.4 0.3
v 0.2 0.5 0.3
v -0.2 0.5 0.3
v 0.2 0.7 0.3
v -0.2 0.7 0.3
v 0.1 0.3 -0.2
v -0.1 0.3 -0.2
v 0.1 0.4 -0.2
v -0.1 0.4 -0.2
v 0.3 0.5 -0.2
v 0.2 0.5 -0.2
v -0.2 0.5 -0.2
v -0.3 0.5 -0.2
v 0.3 0.7 -0.2
v 0.2 0.7 -0.2
v -0.2 0.7 -0.2
v -0.3 0.7 -0.2
v 0.2 0.4 -0.3
v -0.2 0.4 -0.3
v 0.1 0.5 -0.3
v -0.1 0.5 -0.3
v 0.1 0.7 -0.3
v -0.1 0.7 -0.3
v 0.2 0.8 -0.3
v -0.2 0.8 -0.3
v 0.1 0.5 -0.4
v -0.1 0.5 -0.4
v 0.1 0.7 -0.4
v -0.1 0.7 -0.4
v 0.3 0.5 0.4
v 0.3 0.7 0.4
v 0.3 0.5 -0.2
v 0.3 0.7 -0.2
v 0.2 0.4 0.4
v 0.2 0.5 0.4
v 0.2 0.7 0.4
v 0.2 0.8 0.4
v 0.2 0.5 -0.2
v 0.2 0.7 -0.2
v 0.2 0.4 -0.3
v 0.2 0.8 -0.3
v 0.1 0.3 0.3
v 0.1 0.4 0.3
v 0.1 0.3 -0.2
v 0.1 0.4 -0.2
v 0.1 0.5 -0.3
v 0.1 0.7 -0.3
v 0.1 0.5 -0.4
v 0.1 0.7 -0.4
v -0.2 0.5 0.4
v -0.2 0.7 0.4
v -0.2 0.5 0.3
v -0.2 0.7 0.3
v 0.2 0.5 0.4
v 0.2 0.7 0.4
v 0.2 0.5 0.3
v 0.2 0.7 0.3
v -0.1 0.3 0.3
v -0.1 0.4 0.3
v -0.1 0.3 -0.2
v -0.1 0.4 -0.2
v -0.1 0.5 -0.3
v -0.1 0.7 -0.3
v -0.1 0.5 -0.4
v -0.1 0.7 -0.4
v -0.2 0.4 0.4
v -0.2 0.5 0.4
v -0.2 0.7 0.4
v -0.2 0.8 0.4
v -0.2 0.5 -0.2
v -0.2 0.7 -0.2
v -0.2 0.4 -0.3
v -0.2 0.8 -0.3
v -0.3 0.5 0.4
v -0.3 0.7 0.4
v -0.3 0.5 -0.2
v -0.3 0.7 -0.2
v 0.1 0.3 0.3
v 0.1 0.3 -0.2
v -0.1 0.3 0.3
v -0.1 0.3 -0.2
v 0.2 0.4 0.4
v 0.2 0.4 -0.3
v 0.1 0.4 0.3
v 0.1 0.4 -0.2
v -0.1 0.4 0.3
v -0.1 0.4 -0.2
v -0.2 0.4 0.4
v -0.2 0.4 -0.3
v 0.3 0.5 0.4
v 0.3 0.5 -0.2
v 0.2 0.5 0.4
v 0.2 0.5 -0.2
v 0.1 0.5 -0.3
v 0.1 0.5 -0.4
v -0.1 0.5 -0.3
v -0.1 0.5 -0.4
v -0.2 0.5 0.4
v -0.2 0.5 -0.2
v -0.3 0.5 0.4
v -0.3 0.5 -0.2
v 0.2 0.7 0.4
v 0.2 0.7 0.3
v -0.2 0.7 0.4
v -0.2 0.7 0.3
v 0.2 0.5 0.4
v 0.2 0.5 0.3
v -0.2 0.5 0.4
v -0.2 0.5 0.3
v 0.3 0.7 0.4
v 0.3 0.7 -0.2
v 0.2 0.7 0.4
v 0.2 0.7 -0.2
v 0.1 0.7 -0.3
v 0.1 0.7 -0.4
v -0.1 0.7 -0.3
v -0.1 0.7 -0.4
v -0.2 0.7 0.4
v -0.2 0.7 -0.2
v -0.3 0.7 0.4
v -0.3 0.7 -0.2
v 0.2 0.8 0.4
v 0.2 0.8 -0.3
v -0.2 0.8 0.4
v -0.2 0.8 -0.3

# faces
f 4/2/1 2/2/1 1/2/1
f 5/2/1 2/2/1 4/2/1
f 7/2/1 4/2/1 3/2/1
f 8/2/1 4/2/1 7/2/1
f 9/2/1 6/2/1 5/2/1
f 10/2/1 6/2/1 9/2/1
f 11/2/1 9/2/1 8/2/1
f 12/2/1 9/2/1 11/2/1
f 15/2/1 14/2/1 13/2/1
f 16/2/1 14/2/1 15/2/1
f 19/4/1 18/4/1 17/4/1
f 20/4/1 18/4/1 19/4/1
f 21/2/2 22/2/2 23/2/2
f 23/2/2 22/2/2 24/2/2
f 25/2/2 26/2/2 29/2/2
f 29/2/2 26/2/2 30/2/2
f 27/2/2 28/2/2 31/2/2
f 31/2/2 28/2/2 32/2/2
f 33/2/2 34/2/2 35/2/2
f 35/2/2 34/2/2 36/2/2
f 33/2/2 35/2/2 37/2/2
f 36/2/2 34/2/2 38/2/2
f 33/2/2 37/2/2 39/2/2
f 37/2/2 38/2/2 39/2/2
f 38/2/2 34/2/2 40/2/2
f 39/2/2 38/2/2 40/2/2
f 41/1/2 42/1/2 43/1/2
f 43/1/2 42/1/2 44/1/2
f 47/2/3 46/2/3 45/2/3
f 48/2/3 46/2/3 47/2/3
f 53/2/3 50/2/3 49/2/3
f 54/2/3 52/2/3 51/2/3
f 55/2/3 53/2/3 49/2/3
f 55/2/3 54/2/3 53/2/3
f 56/2/3 52/2/3 54/2/3
f 56/2/3 54/2/3 55/2/3
f 59/2/3 58/2/3 57/2/3
f 60/2/3 58/2/3 59/2/3
f 63/1/3 62/1/3 61/1/3
f 64/1/3 62/1/3 63/1/3
f 67/2/3 66/2/3 65/2/3
f 68/2/3 66/2/3 67/2/3
f 69/2/4 70/2/4 71/2/4
f 71/2/4 70/2/4 72/2/4
f 73/2/4 74/2/4 75/2/4
f 75/2/4 74/2/4 76/2/4
f 77/1/4 78/1/4 79/1/4
f 79/1/4 78/1/4 80/1/4
f 81/2/4 82/2/4 85/2/4
f 83/2/4 84/2/4 86/2/4
f 81/2/4 85/2/4 87/2/4
f 85/2/4 86/2/4 87/2/4
f 86/2/4 84/2/4 88/2/4
f 87/2/4 86/2/4 88/2/4
f 89/2/4 90/2/4 91/2/4
f 91/2/4 90/2/4 92/2/4
f 95/2/5 94/2/5 93/2/5
f 96/2/5 94/2/5 95/2/5
f 99/2/5 98/2/5 97/2/5
f 100/2/5 98/2/5 99/2/5
f 101/2/5 99/2/5 97/2/5
f 102/2/5 98/2/5 100/2/5
f 103/2/5 101/2/5 97/2/5
f 103/2/5 102/2/5 101/2/5
f 104/2/5 98/2/5 102/2/5
f 104/2/5 102/2/5 103/2/5
f 107/2/5 106/2/5 105/2/5
f 108/2/5 106/2/5 107/2/5
f 111/1/5 110/1/5 109/1/5
f 112/1/5 110/1/5 111/1/5
f 115/2/5 114/2/5 113/2/5
f 116/2/5 114/2/5 115/2/5
f 119/2/5 118/2/5 117/2/5
f 120/2/5 118/2/5 119/2/5
f 121/2/6 122/2/6 123/2/6
f 123/2/6 122/2/6 124/2/6
f 125/2/6 126/2/6 127/2/6
f 127/2/6 126/2/6 128/2/6
f 129/1/6 130/1/6 131/1/6
f 131/1/6 130/1/6 132/1/6
f 133/2/6 134/2/6 135/2/6
f 135/2/6 134/2/6 136/2/6
f 137/2/6 138/2/6 139/2/6
f 139/2/6 138/2/6 140/2/6
