# MagicaVoxel @ Ephtracy

# group
o 

# material
mtllib green_ram.mtl
usemtl palette

# normals
vn 0 0 1
vn 0 0 -1
vn 1 0 0
vn -1 0 0
vn 0 -1 0
vn 0 1 0

# texcoords
vt 0.224609 0.5
vt 0.330078 0.5
vt 0.595703 0.5

# verts
v 0.4 0.1 0.4
v 0.3 0.1 0.4
v -0.3 0.1 0.4
v -0.4 0.1 0.4
v 0.4 0.2 0.4
v 0.3 0.2 0.4
v -0.3 0.2 0.4
v -0.4 0.2 0.4
v 0.1 0.3 0.4
v -0.1 0.3 0.4
v 0.1 0.5 0.4
v -0.1 0.5 0.4
v 0.4 0 0.3
v 0.3 0 0.3
v -0.3 0 0.3
v -0.4 0 0.3
v 0.4 0.1 0.3
v 0.3 0.1 0.3
v -0.3 0.1 0.3
v -0.4 0.1 0.3
v 0.4 0.2 0.3
v 0.3 0.2 0.3
v 0.2 0.2 0.3
v 0.1 0.2 0.3
v -0.1 0.2 0.3
v -0.2 0.2 0.3
v -0.3 0.2 0.3
v -0.4 0.2 0.3
v 0.4 0.3 0.3
v 0.3 0.3 0.3
v 0.1 0.3 0.3
v -0.1 0.3 0.3
v -0.3 0.3 0.3
v -0.4 0.3 0.3
v 0.2 0.4 0.3
v 0.1 0.4 0.3
v -0.1 0.4 0.3
v -0.2 0.4 0.3
v 0.3 0.5 0.3
v 0.2 0.5 0.3
v -0.2 0.5 0.3
v -0.3 0.5 0.3
v 0.3 0.6 0.3
v 0.2 0.6 0.3
v -0.2 0.6 0.3
v -0.3 0.6 0.3
v 0.2 0.7 0.3
v -0.2 0.7 0.3
v 0.2 0.4 0.2
v 0.1 0.4 0.2
v -0.1 0.4 0.2
v -0.2 0.4 0.2
v 0.2 0.5 0.2
v 0.1 0.5 0.2
v -0.1 0.5 0.2
v -0.2 0.5 0.2
v 0.2 0.5 0.1
v 0.1 0.5 0.1
v -0.1 0.5 0.1
v -0.2 0.5 0.1
v 0.2 0.6 0.1
v 0.1 0.6 0.1
v -0.1 0.6 0.1
v -0.2 0.6 0.1
v 0.4 0.1 0
v 0.3 0.1 0
v -0.3 0.1 0
v -0.4 0.1 0
v 0.4 0.2 0
v 0.3 0.2 0
v -0.3 0.2 0
v -0.4 0.2 0
v 0.4 0 -0.1
v 0.3 0 -0.1
v -0.3 0 -0.1
v -0.4 0 -0.1
v 0.4 0.1 -0.1
v 0.3 0.1 -0.1
v 0.2 0.1 -0.1
v -0.2 0.1 -0.1
v -0.3 0.1 -0.1
v -0.4 0.1 -0.1
v 0.4 0.2 -0.1
v 0.3 0.2 -0.1
v 0.2 0.2 -0.1
v -0.2 0.2 -0.1
v -0.3 0.2 -0.1
v -0.4 0.2 -0.1
v 0.4 0.3 -0.1
v 0.3 0.3 -0.1
v -0.3 0.3 -0.1
v -0.4 0.3 -0.1
v 0.2 0.4 -0.1
v 0.1 0.4 -0.1
v -0.1 0.4 -0.1
v -0.2 0.4 -0.1
v 0.2 0.5 -0.1
v 0.1 0.5 -0.1
v -0.1 0.5 -0.1
v -0.2 0.5 -0.1
v 0.2 0.2 -0.2
v 0.1 0.2 -0.2
v -0.1 0.2 -0.2
v -0.2 0.2 -0.2
v 0.1 0.3 -0.2
v -0.1 0.3 -0.2
v 0.2 0.4 -0.2
v 0.1 0.4 -0.2
v -0.1 0.4 -0.2
v -0.2 0.4 -0.2
v 0.4 0 0.2
v 0.3 0 0.2
v -0.3 0 0.2
v -0.4 0 0.2
v 0.4 0.1 0.2
v 0.3 0.1 0.2
v 0.2 0.1 0.2
v -0.2 0.1 0.2
v -0.3 0.1 0.2
v -0.4 0.1 0.2
v 0.4 0.2 0.2
v 0.3 0.2 0.2
v 0.2 0.2 0.2
v 0.1 0.2 0.2
v -0.1 0.2 0.2
v -0.2 0.2 0.2
v -0.3 0.2 0.2
v -0.4 0.2 0.2
v 0.4 0.3 0.2
v 0.3 0.3 0.2
v 0.1 0.3 0.2
v -0.1 0.3 0.2
v -0.3 0.3 0.2
v -0.4 0.3 0.2
v 0.2 0.4 0.2
v 0.1 0.4 0.2
v -0.1 0.4 0.2
v -0.2 0.4 0.2
v 0.4 0.1 0.1
v 0.3 0.1 0.1
v -0.3 0.1 0.1
v -0.4 0.1 0.1
v 0.4 0.2 0.1
v 0.3 0.2 0.1
v -0.3 0.2 0.1
v -0.4 0.2 0.1
v 0.2 0.4 0.1
v 0.1 0.4 0.1
v -0.1 0.4 0.1
v -0.2 0.4 0.1
v 0.2 0.5 0.1
v 0.1 0.5 0.1
v -0.1 0.5 0.1
v -0.2 0.5 0.1
v 0.2 0.5 -0.1
v 0.1 0.5 -0.1
v -0.1 0.5 -0.1
v -0.2 0.5 -0.1
v 0.2 0.6 -0.1
v 0.1 0.6 -0.1
v -0.1 0.6 -0.1
v -0.2 0.6 -0.1
v 0.4 0 -0.2
v 0.3 0 -0.2
v -0.3 0 -0.2
v -0.4 0 -0.2
v 0.4 0.1 -0.2
v 0.3 0.1 -0.2
v 0.2 0.1 -0.2
v -0.2 0.1 -0.2
v -0.3 0.1 -0.2
v -0.4 0.1 -0.2
v 0.4 0.2 -0.2
v 0.3 0.2 -0.2
v 0.2 0.2 -0.2
v -0.2 0.2 -0.2
v -0.3 0.2 -0.2
v -0.4 0.2 -0.2
v 0.4 0.3 -0.2
v 0.3 0.3 -0.2
v -0.3 0.3 -0.2
v -0.4 0.3 -0.2
v 0.2 0.4 -0.2
v 0.1 0.4 -0.2
v -0.1 0.4 -0.2
v -0.2 0.4 -0.2
v 0.2 0.5 -0.2
v 0.1 0.5 -0.2
v -0.1 0.5 -0.2
v -0.2 0.5 -0.2
v 0.4 0.1 -0.3
v 0.3 0.1 -0.3
v -0.3 0.1 -0.3
v -0.4 0.1 -0.3
v 0.4 0.2 -0.3
v 0.3 0.2 -0.3
v 0.2 0.2 -0.3
v 0.1 0.2 -0.3
v -0.1 0.2 -0.3
v -0.2 0.2 -0.3
v -0.3 0.2 -0.3
v -0.4 0.2 -0.3
v 0.1 0.3 -0.3
v -0.1 0.3 -0.3
v 0.2 0.4 -0.3
v 0.1 0.4 -0.3
v -0.1 0.4 -0.3
v -0.2 0.4 -0.3
v 0.3 0.5 -0.3
v 0.2 0.5 -0.3
v -0.2 0.5 -0.3
v -0.3 0.5 -0.3
v 0.3 0.6 -0.3
v 0.2 0.6 -0.3
v -0.2 0.6 -0.3
v -0.3 0.6 -0.3
v 0.2 0.7 -0.3
v -0.2 0.7 -0.3
v 0.2 0.1 -0.4
v -0.2 0.1 -0.4
v 0.2 0.2 -0.4
v -0.2 0.2 -0.4
v 0.1 0.3 -0.4
v -0.1 0.3 -0.4
v 0.1 0.5 -0.4
v -0.1 0.5 -0.4
v 0.4 0.1 0.4
v 0.4 0.2 0.4
v 0.4 0 0.3
v 0.4 0.1 0.3
v 0.4 0.2 0.3
v 0.4 0.3 0.3
v 0.4 0 0.2
v 0.4 0.1 0.2
v 0.4 0.2 0.2
v 0.4 0.3 0.2
v 0.4 0.1 0.1
v 0.4 0.2 0.1
v 0.4 0.1 0
v 0.4 0.2 0
v 0.4 0 -0.1
v 0.4 0.1 -0.1
v 0.4 0.2 -0.1
v 0.4 0.3 -0.1
v 0.4 0 -0.2
v 0.4 0.1 -0.2
v 0.4 0.2 -0.2
v 0.4 0.3 -0.2
v 0.4 0.1 -0.3
v 0.4 0.2 -0.3
v 0.3 0.5 0.3
v 0.3 0.6 0.3
v 0.3 0.5 -0.3
v 0.3 0.6 -0.3
v 0.2 0.2 0.3
v 0.2 0.4 0.3
v 0.2 0.6 0.3
v 0.2 0.7 0.3
v 0.2 0.1 0.2
v 0.2 0.2 0.2
v 0.2 0.4 0.2
v 0.2 0.5 0.2
v 0.2 0.4 0.1
v 0.2 0.5 0.1
v 0.2 0.1 -0.1
v 0.2 0.2 -0.1
v 0.2 0.4 -0.1
v 0.2 0.5 -0.1
v 0.2 0.1 -0.2
v 0.2 0.2 -0.2
v 0.2 0.4 -0.2
v 0.2 0.5 -0.2
v 0.2 0.2 -0.3
v 0.2 0.4 -0.3
v 0.2 0.6 -0.3
v 0.2 0.7 -0.3
v 0.2 0.1 -0.4
v 0.2 0.2 -0.4
v 0.1 0.3 0.4
v 0.1 0.5 0.4
v 0.1 0.3 0.3
v 0.1 0.4 0.3
v 0.1 0.3 0.2
v 0.1 0.4 0.2
v 0.1 0.5 0.2
v 0.1 0.4 0.1
v 0.1 0.5 0.1
v 0.1 0.4 -0.1
v 0.1 0.5 -0.1
v 0.1 0.3 -0.2
v 0.1 0.4 -0.2
v 0.1 0.5 -0.2
v 0.1 0.3 -0.3
v 0.1 0.4 -0.3
v 0.1 0.3 -0.4
v 0.1 0.5 -0.4
v -0.1 0.2 0.3
v -0.1 0.3 0.3
v -0.1 0.2 0.2
v -0.1 0.3 0.2
v -0.1 0.5 0.1
v -0.1 0.6 0.1
v -0.1 0.5 -0.1
v -0.1 0.6 -0.1
v -0.1 0.2 -0.2
v -0.1 0.3 -0.2
v -0.1 0.2 -0.3
v -0.1 0.3 -0.3
v -0.2 0.5 0.3
v -0.2 0.6 0.3
v -0.2 0.5 0.2
v -0.2 0.5 0.1
v -0.2 0.6 0.1
v -0.2 0.5 -0.1
v -0.2 0.6 -0.1
v -0.2 0.5 -0.2
v -0.2 0.5 -0.3
v -0.2 0.6 -0.3
v -0.3 0.1 0.4
v -0.3 0.2 0.4
v -0.3 0 0.3
v -0.3 0.1 0.3
v -0.3 0.2 0.3
v -0.3 0.3 0.3
v -0.3 0 0.2
v -0.3 0.1 0.2
v -0.3 0.2 0.2
v -0.3 0.3 0.2
v -0.3 0.1 0.1
v -0.3 0.2 0.1
v -0.3 0.1 0
v -0.3 0.2 0
v -0.3 0 -0.1
v -0.3 0.1 -0.1
v -0.3 0.2 -0.1
v -0.3 0.3 -0.1
v -0.3 0 -0.2
v -0.3 0.1 -0.2
v -0.3 0.2 -0.2
v -0.3 0.3 -0.2
v -0.3 0.1 -0.3
v -0.3 0.2 -0.3
v 0.3 0.1 0.4
v 0.3 0.2 0.4
v 0.3 0 0.3
v 0.3 0.1 0.3
v 0.3 0.2 0.3
v 0.3 0.3 0.3
v 0.3 0 0.2
v 0.3 0.1 0.2
v 0.3 0.2 0.2
v 0.3 0.3 0.2
v 0.3 0.1 0.1
v 0.3 0.2 0.1
v 0.3 0.1 0
v 0.3 0.2 0
v 0.3 0 -0.1
v 0.3 0.1 -0.1
v 0.3 0.2 -0.1
v 0.3 0.3 -0.1
v 0.3 0 -0.2
v 0.3 0.1 -0.2
v 0.3 0.2 -0.2
v 0.3 0.3 -0.2
v 0.3 0.1 -0.3
v 0.3 0.2 -0.3
v 0.2 0.5 0.3
v 0.2 0.6 0.3
v 0.2 0.5 0.2
v 0.2 0.5 0.1
v 0.2 0.6 0.1
v 0.2 0.5 -0.1
v 0.2 0.6 -0.1
v 0.2 0.5 -0.2
v 0.2 0.5 -0.3
v 0.2 0.6 -0.3
v 0.1 0.2 0.3
v 0.1 0.3 0.3
v 0.1 0.2 0.2
v 0.1 0.3 0.2
v 0.1 0.5 0.1
v 0.1 0.6 0.1
v 0.1 0.5 -0.1
v 0.1 0.6 -0.1
v 0.1 0.2 -0.2
v 0.1 0.3 -0.2
v 0.1 0.2 -0.3
v 0.1 0.3 -0.3
v -0.1 0.3 0.4
v -0.1 0.5 0.4
v -0.1 0.3 0.3
v -0.1 0.4 0.3
v -0.1 0.3 0.2
v -0.1 0.4 0.2
v -0.1 0.5 0.2
v -0.1 0.4 0.1
v -0.1 0.5 0.1
v -0.1 0.4 -0.1
v -0.1 0.5 -0.1
v -0.1 0.3 -0.2
v -0.1 0.4 -0.2
v -0.1 0.5 -0.2
v -0.1 0.3 -0.3
v -0.1 0.4 -0.3
v -0.1 0.3 -0.4
v -0.1 0.5 -0.4
v -0.2 0.2 0.3
v -0.2 0.4 0.3
v -0.2 0.6 0.3
v -0.2 0.7 0.3
v -0.2 0.1 0.2
v -0.2 0.2 0.2
v -0.2 0.4 0.2
v -0.2 0.5 0.2
v -0.2 0.4 0.1
v -0.2 0.5 0.1
v -0.2 0.1 -0.1
v -0.2 0.2 -0.1
v -0.2 0.4 -0.1
v -0.2 0.5 -0.1
v -0.2 0.1 -0.2
v -0.2 0.2 -0.2
v -0.2 0.4 -0.2
v -0.2 0.5 -0.2
v -0.2 0.2 -0.3
v -0.2 0.4 -0.3
v -0.2 0.6 -0.3
v -0.2 0.7 -0.3
v -0.2 0.1 -0.4
v -0.2 0.2 -0.4
v -0.3 0.5 0.3
v -0.3 0.6 0.3
v -0.3 0.5 -0.3
v -0.3 0.6 -0.3
v -0.4 0.1 0.4
v -0.4 0.2 0.4
v -0.4 0 0.3
v -0.4 0.1 0.3
v -0.4 0.2 0.3
v -0.4 0.3 0.3
v -0.4 0 0.2
v -0.4 0.1 0.2
v -0.4 0.2 0.2
v -0.4 0.3 0.2
v -0.4 0.1 0.1
v -0.4 0.2 0.1
v -0.4 0.1 0
v -0.4 0.2 0
v -0.4 0 -0.1
v -0.4 0.1 -0.1
v -0.4 0.2 -0.1
v -0.4 0.3 -0.1
v -0.4 0 -0.2
v -0.4 0.1 -0.2
v -0.4 0.2 -0.2
v -0.4 0.3 -0.2
v -0.4 0.1 -0.3
v -0.4 0.2 -0.3
v 0.4 0 0.3
v 0.4 0 0.2
v 0.4 0 -0.1
v 0.4 0 -0.2
v 0.3 0 0.3
v 0.3 0 0.2
v 0.3 0 -0.1
v 0.3 0 -0.2
v -0.3 0 0.3
v -0.3 0 0.2
v -0.3 0 -0.1
v -0.3 0 -0.2
v -0.4 0 0.3
v -0.4 0 0.2
v -0.4 0 -0.1
v -0.4 0 -0.2
v 0.4 0.1 0.4
v 0.4 0.1 0.3
v 0.4 0.1 0.2
v 0.4 0.1 0.1
v 0.4 0.1 0
v 0.4 0.1 -0.1
v 0.4 0.1 -0.2
v 0.4 0.1 -0.3
v 0.3 0.1 0.4
v 0.3 0.1 0.3
v 0.3 0.1 0.2
v 0.3 0.1 0.1
v 0.3 0.1 0
v 0.3 0.1 -0.1
v 0.3 0.1 -0.2
v 0.3 0.1 -0.3
v 0.2 0.1 0.2
v 0.2 0.1 -0.1
v 0.2 0.1 -0.2
v 0.2 0.1 -0.4
v -0.2 0.1 0.2
v -0.2 0.1 -0.1
v -0.2 0.1 -0.2
v -0.2 0.1 -0.4
v -0.3 0.1 0.4
v -0.3 0.1 0.3
v -0.3 0.1 0.2
v -0.3 0.1 0.1
v -0.3 0.1 0
v -0.3 0.1 -0.1
v -0.3 0.1 -0.2
v -0.3 0.1 -0.3
v -0.4 0.1 0.4
v -0.4 0.1 0.3
v -0.4 0.1 0.2
v -0.4 0.1 0.1
v -0.4 0.1 0
v -0.4 0.1 -0.1
v -0.4 0.1 -0.2
v -0.4 0.1 -0.3
v 0.1 0.3 0.4
v 0.1 0.3 0.3
v 0.1 0.3 0.2
v 0.1 0.3 -0.2
v 0.1 0.3 -0.3
v 0.1 0.3 -0.4
v -0.1 0.3 0.4
v -0.1 0.3 0.3
v -0.1 0.3 0.2
v -0.1 0.3 -0.2
v -0.1 0.3 -0.3
v -0.1 0.3 -0.4
v 0.2 0.4 0.2
v 0.2 0.4 0.1
v 0.2 0.4 -0.1
v 0.2 0.4 -0.2
v 0.1 0.4 0.2
v 0.1 0.4 0.1
v 0.1 0.4 -0.1
v 0.1 0.4 -0.2
v -0.1 0.4 0.2
v -0.1 0.4 0.1
v -0.1 0.4 -0.1
v -0.1 0.4 -0.2
v -0.2 0.4 0.2
v -0.2 0.4 0.1
v -0.2 0.4 -0.1
v -0.2 0.4 -0.2
v 0.3 0.5 0.3
v 0.3 0.5 -0.3
v 0.2 0.5 0.3
v 0.2 0.5 0.2
v 0.2 0.5 0.1
v 0.2 0.5 -0.1
v 0.2 0.5 -0.2
v 0.2 0.5 -0.3
v 0.1 0.5 0.1
v 0.1 0.5 -0.1
v -0.1 0.5 0.1
v -0.1 0.5 -0.1
v -0.2 0.5 0.3
v -0.2 0.5 0.2
v -0.2 0.5 0.1
v -0.2 0.5 -0.1
v -0.2 0.5 -0.2
v -0.2 0.5 -0.3
v -0.3 0.5 0.3
v -0.3 0.5 -0.3
v 0.2 0.6 0.3
v 0.2 0.6 0.1
v 0.2 0.6 -0.1
v 0.2 0.6 -0.3
v 0.1 0.6 0.1
v 0.1 0.6 -0.1
v -0.1 0.6 0.1
v -0.1 0.6 -0.1
v -0.2 0.6 0.3
v -0.2 0.6 0.1
v -0.2 0.6 -0.1
v -0.2 0.6 -0.3
v 0.4 0.2 0.4
v 0.4 0.2 0.3
v 0.4 0.2 0.2
v 0.4 0.2 0.1
v 0.4 0.2 0
v 0.4 0.2 -0.1
v 0.4 0.2 -0.2
v 0.4 0.2 -0.3
v 0.3 0.2 0.4
v 0.3 0.2 0.3
v 0.3 0.2 0.2
v 0.3 0.2 0.1
v 0.3 0.2 0
v 0.3 0.2 -0.1
v 0.3 0.2 -0.2
v 0.3 0.2 -0.3
v 0.2 0.2 0.3
v 0.2 0.2 0.2
v 0.2 0.2 -0.1
v 0.2 0.2 -0.2
v 0.2 0.2 -0.3
v 0.2 0.2 -0.4
v 0.1 0.2 0.3
v 0.1 0.2 0.2
v 0.1 0.2 -0.2
v 0.1 0.2 -0.3
v -0.1 0.2 0.3
v -0.1 0.2 0.2
v -0.1 0.2 -0.2
v -0.1 0.2 -0.3
v -0.2 0.2 0.3
v -0.2 0.2 0.2
v -0.2 0.2 -0.1
v -0.2 0.2 -0.2
v -0.2 0.2 -0.3
v -0.2 0.2 -0.4
v -0.3 0.2 0.4
v -0.3 0.2 0.3
v -0.3 0.2 0.2
v -0.3 0.2 0.1
v -0.3 0.2 0
v -0.3 0.2 -0.1
v -0.3 0.2 -0.2
v -0.3 0.2 -0.3
v -0.4 0.2 0.4
v -0.4 0.2 0.3
v -0.4 0.2 0.2
v -0.4 0.2 0.1
v -0.4 0.2 0
v -0.4 0.2 -0.1
v -0.4 0.2 -0.2
v -0.4 0.2 -0.3
v 0.4 0.3 0.3
v 0.4 0.3 0.2
v 0.4 0.3 -0.1
v 0.4 0.3 -0.2
v 0.3 0.3 0.3
v 0.3 0.3 0.2
v 0.3 0.3 -0.1
v 0.3 0.3 -0.2
v -0.3 0.3 0.3
v -0.3 0.3 0.2
v -0.3 0.3 -0.1
v -0.3 0.3 -0.2
v -0.4 0.3 0.3
v -0.4 0.3 0.2
v -0.4 0.3 -0.1
v -0.4 0.3 -0.2
v 0.2 0.4 0.3
v 0.2 0.4 0.2
v 0.2 0.4 -0.2
v 0.2 0.4 -0.3
v 0.1 0.4 0.3
v 0.1 0.4 0.2
v 0.1 0.4 -0.2
v 0.1 0.4 -0.3
v -0.1 0.4 0.3
v -0.1 0.4 0.2
v -0.1 0.4 -0.2
v -0.1 0.4 -0.3
v -0.2 0.4 0.3
v -0.2 0.4 0.2
v -0.2 0.4 -0.2
v -0.2 0.4 -0.3
v 0.2 0.5 0.2
v 0.2 0.5 0.1
v 0.2 0.5 -0.1
v 0.2 0.5 -0.2
v 0.1 0.5 0.4
v 0.1 0.5 0.2
v 0.1 0.5 0.1
v 0.1 0.5 -0.1
v 0.1 0.5 -0.2
v 0.1 0.5 -0.4
v -0.1 0.5 0.4
v -0.1 0.5 0.2
v -0.1 0.5 0.1
v -0.1 0.5 -0.1
v -0.1 0.5 -0.2
v -0.1 0.5 -0.4
v -0.2 0.5 0.2
v -0.2 0.5 0.1
v -0.2 0.5 -0.1
v -0.2 0.5 -0.2
v 0.3 0.6 0.3
v 0.3 0.6 -0.3
v 0.2 0.6 0.3
v 0.2 0.6 -0.3
v -0.2 0.6 0.3
v -0.2 0.6 -0.3
v -0.3 0.6 0.3
v -0.3 0.6 -0.3
v 0.2 0.7 0.3
v 0.2 0.7 -0.3
v -0.2 0.7 0.3
v -0.2 0.7 -0.3

# faces
f 5/1/1 2/1/1 1/1/1
f 6/1/1 2/1/1 5/1/1
f 7/1/1 4/1/1 3/1/1
f 8/1/1 4/1/1 7/1/1
f 11/1/1 10/1/1 9/1/1
f 12/1/1 10/1/1 11/1/1
f 17/1/1 14/1/1 13/1/1
f 18/1/1 14/1/1 17/1/1
f 19/1/1 16/1/1 15/1/1
f 20/1/1 16/1/1 19/1/1
f 22/2/1 19/2/1 18/2/1
f 23/2/1 19/2/1 22/2/1
f 24/2/1 19/2/1 23/2/1
f 25/2/1 19/2/1 24/2/1
f 26/2/1 19/2/1 25/2/1
f 27/2/1 19/2/1 26/2/1
f 29/1/1 22/1/1 21/1/1
f 30/1/1 22/1/1 29/1/1
f 31/2/1 24/2/1 23/2/1
f 32/2/1 26/2/1 25/2/1
f 33/1/1 28/1/1 27/1/1
f 34/1/1 28/1/1 33/1/1
f 35/2/1 31/2/1 23/2/1
f 36/2/1 31/2/1 35/2/1
f 37/2/1 26/2/1 32/2/1
f 38/2/1 26/2/1 37/2/1
f 43/3/1 40/3/1 39/3/1
f 44/3/1 40/3/1 43/3/1
f 45/3/1 42/3/1 41/3/1
f 46/3/1 42/3/1 45/3/1
f 47/3/1 45/3/1 44/3/1
f 48/3/1 45/3/1 47/3/1
f 53/2/1 50/2/1 49/2/1
f 54/2/1 50/2/1 53/2/1
f 55/2/1 52/2/1 51/2/1
f 56/2/1 52/2/1 55/2/1
f 61/2/1 58/2/1 57/2/1
f 62/2/1 58/2/1 61/2/1
f 63/2/1 60/2/1 59/2/1
f 64/2/1 60/2/1 63/2/1
f 69/1/1 66/1/1 65/1/1
f 70/1/1 66/1/1 69/1/1
f 71/1/1 68/1/1 67/1/1
f 72/1/1 68/1/1 71/1/1
f 77/1/1 74/1/1 73/1/1
f 78/1/1 74/1/1 77/1/1
f 81/1/1 76/1/1 75/1/1
f 82/1/1 76/1/1 81/1/1
f 84/2/1 79/2/1 78/2/1
f 85/2/1 79/2/1 84/2/1
f 86/2/1 81/2/1 80/2/1
f 87/2/1 81/2/1 86/2/1
f 89/1/1 84/1/1 83/1/1
f 90/1/1 84/1/1 89/1/1
f 91/1/1 88/1/1 87/1/1
f 92/1/1 88/1/1 91/1/1
f 97/2/1 94/2/1 93/2/1
f 98/2/1 94/2/1 97/2/1
f 99/2/1 96/2/1 95/2/1
f 100/2/1 96/2/1 99/2/1
f 105/2/1 102/2/1 101/2/1
f 106/2/1 104/2/1 103/2/1
f 107/2/1 105/2/1 101/2/1
f 108/2/1 105/2/1 107/2/1
f 109/2/1 104/2/1 106/2/1
f 110/2/1 104/2/1 109/2/1
f 111/1/2 112/1/2 115/1/2
f 115/1/2 112/1/2 116/1/2
f 113/1/2 114/1/2 119/1/2
f 119/1/2 114/1/2 120/1/2
f 116/2/2 117/2/2 122/2/2
f 122/2/2 117/2/2 123/2/2
f 118/2/2 119/2/2 126/2/2
f 126/2/2 119/2/2 127/2/2
f 121/1/2 122/1/2 129/1/2
f 129/1/2 122/1/2 130/1/2
f 123/2/2 124/2/2 131/2/2
f 125/2/2 126/2/2 132/2/2
f 127/1/2 128/1/2 133/1/2
f 133/1/2 128/1/2 134/1/2
f 123/2/2 131/2/2 135/2/2
f 135/2/2 131/2/2 136/2/2
f 132/2/2 126/2/2 137/2/2
f 137/2/2 126/2/2 138/2/2
f 139/1/2 140/1/2 143/1/2
f 143/1/2 140/1/2 144/1/2
f 141/1/2 142/1/2 145/1/2
f 145/1/2 142/1/2 146/1/2
f 147/2/2 148/2/2 151/2/2
f 151/2/2 148/2/2 152/2/2
f 149/2/2 150/2/2 153/2/2
f 153/2/2 150/2/2 154/2/2
f 155/2/2 156/2/2 159/2/2
f 159/2/2 156/2/2 160/2/2
f 157/2/2 158/2/2 161/2/2
f 161/2/2 158/2/2 162/2/2
f 163/1/2 164/1/2 167/1/2
f 167/1/2 164/1/2 168/1/2
f 165/1/2 166/1/2 171/1/2
f 171/1/2 166/1/2 172/1/2
f 168/2/2 169/2/2 174/2/2
f 174/2/2 169/2/2 175/2/2
f 170/2/2 171/2/2 176/2/2
f 176/2/2 171/2/2 177/2/2
f 173/1/2 174/1/2 179/1/2
f 179/1/2 174/1/2 180/1/2
f 177/1/2 178/1/2 181/1/2
f 181/1/2 178/1/2 182/1/2
f 183/2/2 184/2/2 187/2/2
f 187/2/2 184/2/2 188/2/2
f 185/2/2 186/2/2 189/2/2
f 189/2/2 186/2/2 190/2/2
f 191/1/2 192/1/2 195/1/2
f 195/1/2 192/1/2 196/1/2
f 193/1/2 194/1/2 201/1/2
f 201/1/2 194/1/2 202/1/2
f 197/2/2 198/2/2 203/2/2
f 199/2/2 200/2/2 204/2/2
f 197/2/2 203/2/2 205/2/2
f 205/2/2 203/2/2 206/2/2
f 204/2/2 200/2/2 207/2/2
f 207/2/2 200/2/2 208/2/2
f 209/3/2 210/3/2 213/3/2
f 213/3/2 210/3/2 214/3/2
f 211/3/2 212/3/2 215/3/2
f 215/3/2 212/3/2 216/3/2
f 214/3/2 215/3/2 217/3/2
f 217/3/2 215/3/2 218/3/2
f 219/2/2 220/2/2 221/2/2
f 221/2/2 220/2/2 222/2/2
f 223/1/2 224/1/2 225/1/2
f 225/1/2 224/1/2 226/1/2
f 230/1/3 228/1/3 227/1/3
f 231/1/3 228/1/3 230/1/3
f 233/1/3 230/1/3 229/1/3
f 234/2/3 231/2/3 230/2/3
f 234/1/3 230/1/3 233/1/3
f 235/1/3 232/1/3 231/1/3
f 235/2/3 231/2/3 234/2/3
f 236/1/3 232/1/3 235/1/3
f 237/1/3 235/1/3 234/1/3
f 238/1/3 235/1/3 237/1/3
f 242/1/3 240/1/3 239/1/3
f 243/1/3 240/1/3 242/1/3
f 245/1/3 242/1/3 241/1/3
f 246/2/3 243/2/3 242/2/3
f 246/1/3 242/1/3 245/1/3
f 247/1/3 244/1/3 243/1/3
f 247/2/3 243/2/3 246/2/3
f 248/1/3 244/1/3 247/1/3
f 249/1/3 247/1/3 246/1/3
f 250/1/3 247/1/3 249/1/3
f 253/3/3 252/3/3 251/3/3
f 254/3/3 252/3/3 253/3/3
f 260/2/3 256/2/3 255/2/3
f 261/2/3 256/2/3 260/2/3
f 263/2/3 262/2/3 261/2/3
f 264/2/3 262/2/3 263/2/3
f 265/2/3 260/2/3 259/2/3
f 266/2/3 260/2/3 265/2/3
f 271/2/3 268/2/3 267/2/3
f 272/2/3 268/2/3 271/2/3
f 273/2/3 270/2/3 269/2/3
f 273/2/3 271/2/3 270/2/3
f 274/2/3 271/2/3 273/2/3
f 275/3/3 258/3/3 257/3/3
f 276/3/3 258/3/3 275/3/3
f 277/2/3 273/2/3 269/2/3
f 278/2/3 273/2/3 277/2/3
f 281/1/3 280/1/3 279/1/3
f 282/1/3 280/1/3 281/1/3
f 284/1/3 280/1/3 282/1/3
f 285/1/3 280/1/3 284/1/3
f 286/1/3 284/1/3 283/1/3
f 288/1/3 286/1/3 283/1/3
f 288/1/3 287/1/3 286/1/3
f 289/1/3 287/1/3 288/1/3
f 290/1/3 288/1/3 283/1/3
f 291/1/3 288/1/3 290/1/3
f 294/1/3 292/1/3 291/1/3
f 295/1/3 294/1/3 293/1/3
f 296/1/3 292/1/3 294/1/3
f 296/1/3 294/1/3 295/1/3
f 299/2/3 298/2/3 297/2/3
f 300/2/3 298/2/3 299/2/3
f 303/2/3 302/2/3 301/2/3
f 304/2/3 302/2/3 303/2/3
f 307/2/3 306/2/3 305/2/3
f 308/2/3 306/2/3 307/2/3
f 311/3/3 310/3/3 309/3/3
f 312/3/3 310/3/3 311/3/3
f 313/3/3 310/3/3 312/3/3
f 316/3/3 315/3/3 314/3/3
f 317/3/3 315/3/3 316/3/3
f 318/3/3 315/3/3 317/3/3
f 322/1/3 320/1/3 319/1/3
f 323/1/3 320/1/3 322/1/3
f 325/1/3 322/1/3 321/1/3
f 326/1/3 322/1/3 325/1/3
f 327/1/3 324/1/3 323/1/3
f 328/1/3 324/1/3 327/1/3
f 329/1/3 327/1/3 326/1/3
f 330/1/3 327/1/3 329/1/3
f 334/1/3 332/1/3 331/1/3
f 335/1/3 332/1/3 334/1/3
f 337/1/3 334/1/3 333/1/3
f 338/1/3 334/1/3 337/1/3
f 339/1/3 336/1/3 335/1/3
f 340/1/3 336/1/3 339/1/3
f 341/1/3 339/1/3 338/1/3
f 342/1/3 339/1/3 341/1/3
f 343/1/4 344/1/4 346/1/4
f 346/1/4 344/1/4 347/1/4
f 345/1/4 346/1/4 349/1/4
f 349/1/4 346/1/4 350/1/4
f 347/1/4 348/1/4 351/1/4
f 351/1/4 348/1/4 352/1/4
f 350/1/4 351/1/4 353/1/4
f 353/1/4 351/1/4 354/1/4
f 355/1/4 356/1/4 358/1/4
f 358/1/4 356/1/4 359/1/4
f 357/1/4 358/1/4 361/1/4
f 361/1/4 358/1/4 362/1/4
f 359/1/4 360/1/4 363/1/4
f 363/1/4 360/1/4 364/1/4
f 362/1/4 363/1/4 365/1/4
f 365/1/4 363/1/4 366/1/4
f 367/3/4 368/3/4 369/3/4
f 369/3/4 368/3/4 370/3/4
f 370/3/4 368/3/4 371/3/4
f 372/3/4 373/3/4 374/3/4
f 374/3/4 373/3/4 375/3/4
f 375/3/4 373/3/4 376/3/4
f 377/2/4 378/2/4 379/2/4
f 379/2/4 378/2/4 380/2/4
f 381/2/4 382/2/4 383/2/4
f 383/2/4 382/2/4 384/2/4
f 385/2/4 386/2/4 387/2/4
f 387/2/4 386/2/4 388/2/4
f 389/1/4 390/1/4 391/1/4
f 391/1/4 390/1/4 392/1/4
f 392/1/4 390/1/4 394/1/4
f 394/1/4 390/1/4 395/1/4
f 393/1/4 394/1/4 396/1/4
f 393/1/4 396/1/4 398/1/4
f 396/1/4 397/1/4 398/1/4
f 398/1/4 397/1/4 399/1/4
f 393/1/4 398/1/4 400/1/4
f 400/1/4 398/1/4 401/1/4
f 401/1/4 402/1/4 404/1/4
f 403/1/4 404/1/4 405/1/4
f 404/1/4 402/1/4 406/1/4
f 405/1/4 404/1/4 406/1/4
f 407/2/4 408/2/4 412/2/4
f 412/2/4 408/2/4 413/2/4
f 413/2/4 414/2/4 415/2/4
f 415/2/4 414/2/4 416/2/4
f 411/2/4 412/2/4 417/2/4
f 417/2/4 412/2/4 418/2/4
f 419/2/4 420/2/4 423/2/4
f 423/2/4 420/2/4 424/2/4
f 421/2/4 422/2/4 425/2/4
f 422/2/4 423/2/4 425/2/4
f 425/2/4 423/2/4 426/2/4
f 409/3/4 410/3/4 427/3/4
f 427/3/4 410/3/4 428/3/4
f 421/2/4 425/2/4 429/2/4
f 429/2/4 425/2/4 430/2/4
f 431/3/4 432/3/4 433/3/4
f 433/3/4 432/3/4 434/3/4
f 435/1/4 436/1/4 438/1/4
f 438/1/4 436/1/4 439/1/4
f 437/1/4 438/1/4 441/1/4
f 438/2/4 439/2/4 442/2/4
f 441/1/4 438/1/4 442/1/4
f 439/1/4 440/1/4 443/1/4
f 442/2/4 439/2/4 443/2/4
f 443/1/4 440/1/4 444/1/4
f 442/1/4 443/1/4 445/1/4
f 445/1/4 443/1/4 446/1/4
f 447/1/4 448/1/4 450/1/4
f 450/1/4 448/1/4 451/1/4
f 449/1/4 450/1/4 453/1/4
f 450/2/4 451/2/4 454/2/4
f 453/1/4 450/1/4 454/1/4
f 451/1/4 452/1/4 455/1/4
f 454/2/4 451/2/4 455/2/4
f 455/1/4 452/1/4 456/1/4
f 454/1/4 455/1/4 457/1/4
f 457/1/4 455/1/4 458/1/4
f 463/1/5 460/1/5 459/1/5
f 464/1/5 460/1/5 463/1/5
f 465/1/5 462/1/5 461/1/5
f 466/1/5 462/1/5 465/1/5
f 471/1/5 468/1/5 467/1/5
f 472/1/5 468/1/5 471/1/5
f 473/1/5 470/1/5 469/1/5
f 474/1/5 470/1/5 473/1/5
f 483/1/5 476/1/5 475/1/5
f 484/1/5 476/1/5 483/1/5
f 485/1/5 478/1/5 477/1/5
f 486/1/5 478/1/5 485/1/5
f 487/1/5 480/1/5 479/1/5
f 488/1/5 480/1/5 487/1/5
f 489/1/5 482/1/5 481/1/5
f 490/1/5 482/1/5 489/1/5
f 491/2/5 485/2/5 484/2/5
f 492/2/5 489/2/5 488/2/5
f 493/2/5 489/2/5 492/2/5
f 495/2/5 493/2/5 492/2/5
f 495/2/5 494/2/5 493/2/5
f 495/2/5 492/2/5 491/2/5
f 495/2/5 491/2/5 484/2/5
f 496/2/5 494/2/5 495/2/5
f 497/2/5 494/2/5 496/2/5
f 498/2/5 494/2/5 497/2/5
f 500/2/5 495/2/5 484/2/5
f 501/2/5 495/2/5 500/2/5
f 504/2/5 497/2/5 496/2/5
f 505/2/5 497/2/5 504/2/5
f 507/1/5 500/1/5 499/1/5
f 508/1/5 500/1/5 507/1/5
f 509/1/5 502/1/5 501/1/5
f 510/1/5 502/1/5 509/1/5
f 511/1/5 504/1/5 503/1/5
f 512/1/5 504/1/5 511/1/5
f 513/1/5 506/1/5 505/1/5
f 514/1/5 506/1/5 513/1/5
f 521/1/5 516/1/5 515/1/5
f 521/1/5 520/1/5 519/1/5
f 521/1/5 519/1/5 518/1/5
f 521/1/5 518/1/5 517/1/5
f 521/1/5 517/1/5 516/1/5
f 522/1/5 520/1/5 521/1/5
f 523/1/5 520/1/5 522/1/5
f 524/1/5 520/1/5 523/1/5
f 525/1/5 520/1/5 524/1/5
f 526/1/5 520/1/5 525/1/5
f 531/2/5 528/2/5 527/2/5
f 532/2/5 528/2/5 531/2/5
f 533/2/5 530/2/5 529/2/5
f 534/2/5 530/2/5 533/2/5
f 539/2/5 536/2/5 535/2/5
f 540/2/5 536/2/5 539/2/5
f 541/2/5 538/2/5 537/2/5
f 542/2/5 538/2/5 541/2/5
f 545/3/5 544/3/5 543/3/5
f 546/3/5 544/3/5 545/3/5
f 547/3/5 544/3/5 546/3/5
f 548/3/5 544/3/5 547/3/5
f 549/3/5 544/3/5 548/3/5
f 550/3/5 544/3/5 549/3/5
f 551/2/5 548/2/5 547/2/5
f 552/2/5 548/2/5 551/2/5
f 557/2/5 554/2/5 553/2/5
f 558/2/5 554/2/5 557/2/5
f 561/3/5 558/3/5 557/3/5
f 561/3/5 560/3/5 559/3/5
f 561/3/5 559/3/5 558/3/5
f 561/3/5 557/3/5 556/3/5
f 561/3/5 556/3/5 555/3/5
f 562/3/5 560/3/5 561/3/5
f 567/3/5 564/3/5 563/3/5
f 568/3/5 566/3/5 565/3/5
f 569/3/5 567/3/5 563/3/5
f 569/3/5 568/3/5 567/3/5
f 570/3/5 566/3/5 568/3/5
f 570/3/5 568/3/5 569/3/5
f 571/3/5 569/3/5 563/3/5
f 572/3/5 569/3/5 571/3/5
f 573/3/5 566/3/5 570/3/5
f 574/3/5 566/3/5 573/3/5
f 575/1/6 576/1/6 583/1/6
f 583/1/6 576/1/6 584/1/6
f 577/1/6 578/1/6 585/1/6
f 585/1/6 578/1/6 586/1/6
f 579/1/6 580/1/6 587/1/6
f 587/1/6 580/1/6 588/1/6
f 581/1/6 582/1/6 589/1/6
f 589/1/6 582/1/6 590/1/6
f 584/2/6 585/2/6 591/2/6
f 591/2/6 585/2/6 592/2/6
f 588/2/6 589/2/6 593/2/6
f 593/2/6 589/2/6 594/2/6
f 593/2/6 594/2/6 598/2/6
f 592/2/6 593/2/6 598/2/6
f 598/2/6 594/2/6 599/2/6
f 595/2/6 596/2/6 600/2/6
f 598/2/6 599/2/6 601/2/6
f 599/2/6 600/2/6 601/2/6
f 597/2/6 598/2/6 601/2/6
f 601/2/6 600/2/6 602/2/6
f 602/2/6 600/2/6 603/2/6
f 600/2/6 596/2/6 604/2/6
f 603/2/6 600/2/6 604/2/6
f 602/2/6 603/2/6 606/2/6
f 606/2/6 603/2/6 607/2/6
f 607/2/6 603/2/6 608/2/6
f 604/2/6 596/2/6 609/2/6
f 609/2/6 596/2/6 610/2/6
f 605/2/6 606/2/6 612/2/6
f 612/2/6 606/2/6 613/2/6
f 607/2/6 608/2/6 616/2/6
f 616/2/6 608/2/6 617/2/6
f 611/1/6 612/1/6 619/1/6
f 619/1/6 612/1/6 620/1/6
f 613/1/6 614/1/6 621/1/6
f 621/1/6 614/1/6 622/1/6
f 615/1/6 616/1/6 623/1/6
f 623/1/6 616/1/6 624/1/6
f 617/1/6 618/1/6 625/1/6
f 625/1/6 618/1/6 626/1/6
f 627/1/6 628/1/6 631/1/6
f 631/1/6 628/1/6 632/1/6
f 629/1/6 630/1/6 633/1/6
f 633/1/6 630/1/6 634/1/6
f 635/1/6 636/1/6 639/1/6
f 639/1/6 636/1/6 640/1/6
f 637/1/6 638/1/6 641/1/6
f 641/1/6 638/1/6 642/1/6
f 643/2/6 644/2/6 647/2/6
f 647/2/6 644/2/6 648/2/6
f 645/2/6 646/2/6 649/2/6
f 649/2/6 646/2/6 650/2/6
f 651/2/6 652/2/6 655/2/6
f 655/2/6 652/2/6 656/2/6
f 653/2/6 654/2/6 657/2/6
f 657/2/6 654/2/6 658/2/6
f 659/2/6 660/2/6 664/2/6
f 664/2/6 660/2/6 665/2/6
f 661/2/6 662/2/6 666/2/6
f 666/2/6 662/2/6 667/2/6
f 664/1/6 665/1/6 669/1/6
f 667/1/6 668/1/6 669/1/6
f 666/1/6 667/1/6 669/1/6
f 665/1/6 666/1/6 669/1/6
f 663/1/6 664/1/6 669/1/6
f 669/1/6 668/1/6 670/1/6
f 670/1/6 668/1/6 671/1/6
f 671/1/6 668/1/6 672/1/6
f 672/1/6 668/1/6 673/1/6
f 673/1/6 668/1/6 674/1/6
f 670/2/6 671/2/6 675/2/6
f 675/2/6 671/2/6 676/2/6
f 672/2/6 673/2/6 677/2/6
f 677/2/6 673/2/6 678/2/6
f 679/3/6 680/3/6 681/3/6
f 681/3/6 680/3/6 682/3/6
f 683/3/6 684/3/6 685/3/6
f 685/3/6 684/3/6 686/3/6
f 687/3/6 688/3/6 689/3/6
f 689/3/6 688/3/6 690/3/6
